<?xml version="1.0" encoding="UTF-8"?>
<svg version="1.1" xmlns="http://www.w3.org/2000/svg" width="1024" height="1024">
<path d="M0 0 C1.60890047 -0.00258896 3.2178003 -0.00560358 4.82669926 -0.0090034 C9.21899341 -0.01701424 13.61127116 -0.01885964 18.00357175 -0.01960087 C22.7522584 -0.02146179 27.50093674 -0.02901421 32.24961853 -0.03573608 C42.61975363 -0.0492773 52.98988485 -0.0553374 63.36002731 -0.05974674 C69.84354483 -0.06251603 76.32706087 -0.06675459 82.81057739 -0.07125092 C100.7861166 -0.08343756 118.76165463 -0.0937384 136.73719788 -0.09712601 C137.88608118 -0.09734557 139.03496449 -0.09756514 140.21866244 -0.09779136 C141.94593986 -0.09811878 141.94593986 -0.09811878 143.70811176 -0.09845281 C146.04124769 -0.09889626 148.37438361 -0.09934282 150.70751953 -0.09979248 C152.44346675 -0.10012463 152.44346675 -0.10012463 154.21448362 -0.10046348 C172.95638738 -0.10440944 191.69825222 -0.12186003 210.44014096 -0.145152 C229.71411049 -0.16891057 248.98806051 -0.18132989 268.26204491 -0.18249393 C279.07079568 -0.1834081 289.8794957 -0.18909533 300.68823242 -0.20731354 C309.8935654 -0.22277538 319.09883193 -0.22779925 328.30417544 -0.21957543 C332.99325363 -0.21569052 337.68219826 -0.21649193 342.37125969 -0.23063278 C387.01257841 -0.35751415 387.01257841 -0.35751415 405.66015625 6.32794189 C406.52632568 6.62909912 407.39249512 6.93025635 408.28491211 7.24053955 C421.19881921 11.88940284 432.18419594 18.50965329 442.84765625 27.14044189 C443.52441406 27.67540283 444.20117188 28.21036377 444.8984375 28.76153564 C449.40621478 32.44971706 453.17094191 36.63473977 456.84765625 41.14044189 C457.53730469 41.96930908 458.22695313 42.79817627 458.9375 43.65216064 C468.24568998 55.38146155 475.17317877 68.43945852 479.34765625 82.82794189 C479.57864014 83.6212793 479.80962402 84.4146167 480.04760742 85.23199463 C484.13126829 100.58327646 484.14261298 116.16228398 484.12231445 131.92047119 C484.12667079 134.17444527 484.13185698 136.42841786 484.13780212 138.68238831 C484.15110566 144.76118629 484.15178038 150.83992177 484.14923882 156.91873145 C484.148163 162.01496809 484.15306813 167.1111924 484.15784425 172.20742637 C484.16954084 184.92942752 484.16873157 197.65138384 484.16228744 210.37338451 C484.15712416 221.37071042 484.16836494 232.3679476 484.18738566 243.36525597 C484.20685398 254.71006931 484.21471426 266.05482867 484.2112624 277.39966327 C484.20946009 283.74770734 484.21197955 290.09567017 484.22597694 296.44370079 C484.23866364 302.42010654 484.23650992 308.39633636 484.22356606 314.37273979 C484.22122396 316.54894829 484.2238484 318.7251696 484.23218918 320.90136337 C484.38880481 364.99049251 471.33651608 401.97327588 440.22265625 433.82794189 C439.43890625 434.59106689 438.65515625 435.35419189 437.84765625 436.14044189 C437.1043103 436.90795776 437.1043103 436.90795776 436.34594727 437.690979 C408.56532901 466.21359665 367.96657818 479.42392592 328.88921499 480.19913054 C320.98346405 480.29357627 313.07732113 480.2954366 305.17110801 480.29707336 C301.57871629 480.29893591 297.98633615 480.30655488 294.39395142 480.31355286 C288.18460107 480.32500816 281.97525335 480.33328865 275.76589584 480.33967209 C265.93970741 480.35006496 256.11355199 480.37064302 246.28738403 480.39279175 C242.91597568 480.40026882 239.54456718 480.40768287 236.17315865 480.41507912 C235.33093575 480.41692968 234.48871286 480.41878025 233.62096807 480.42068689 C224.06225663 480.44155841 214.50354162 480.46041543 204.94482422 480.47833252 C203.63607182 480.48078979 203.63607182 480.48078979 202.30087997 480.48329671 C188.14966771 480.50960443 173.99845288 480.52824114 159.84722649 480.54492442 C145.28076201 480.56237337 130.71434837 480.59124158 116.14792454 480.62981379 C107.18279241 480.65313308 98.21774312 480.66720105 89.25258042 480.66914143 C83.10774918 480.67125835 76.96300036 480.68425029 70.81820618 480.70562075 C67.2801969 480.71758739 63.74235117 480.72484294 60.20432281 480.71890831 C40.80059696 480.49338693 40.80059696 480.49338693 21.84765625 484.14044189 C21.0388394 484.36628149 20.23002254 484.59212109 19.39669609 484.82480431 C17.43278121 485.38346741 15.52042626 486.01666396 13.59765625 486.70294189 C12.89640625 486.95269775 12.19515625 487.20245361 11.47265625 487.45977783 C2.75760827 490.72405777 -5.16902932 495.40853314 -13.15234375 500.14044189 C-14.49728267 500.9323008 -15.84233182 501.72397251 -17.1875 502.51544189 C-19.22034126 503.71318473 -21.25212034 504.91257088 -23.28100586 506.11700439 C-29.53295143 509.81555811 -35.86827448 513.35732532 -42.21484375 516.89044189 C-50.54212175 521.52720023 -58.81041804 526.24843254 -67.02734375 531.07794189 C-75.25068677 535.89670305 -83.50137164 540.66355864 -91.81280518 545.32870483 C-93.53871821 546.29919377 -95.26039659 547.27720162 -96.98193359 548.25543213 C-108.47952122 554.67533872 -118.56269069 558.38084804 -131.921875 555.55450439 C-140.40294623 552.64289254 -147.5360269 546.33814044 -152.15234375 538.70294189 C-156.72572135 529.00214102 -156.44116694 518.742948 -156.41304016 508.2353363 C-156.41606438 506.62887355 -156.41995521 505.02241224 -156.42463273 503.41595346 C-156.43488758 499.02104947 -156.43273727 494.6262273 -156.42845213 490.23131669 C-156.42598017 485.48325295 -156.4350052 480.73520866 -156.44248962 475.9871521 C-156.45522806 466.69029624 -156.45703117 457.39346928 -156.45468936 448.09660616 C-156.45290417 440.53313876 -156.45466018 432.96968011 -156.4589138 425.40621376 C-156.45950899 424.3284656 -156.46010418 423.25071743 -156.46071741 422.14031023 C-156.46192921 419.95053893 -156.46314335 417.76076762 -156.46435978 415.57099632 C-156.47523318 395.03958994 -156.47307447 374.50819998 -156.46697494 353.97679267 C-156.46181266 335.22896799 -156.47304336 316.48119538 -156.49207316 297.733381 C-156.51148931 278.45607655 -156.51970052 259.17879668 -156.5159499 239.9014824 C-156.51404272 229.08987962 -156.51647761 218.27832108 -156.53066444 207.4667263 C-156.54262785 198.25661091 -156.5439283 189.04656695 -156.53187428 179.83645048 C-156.52601863 175.1452407 -156.52479308 170.45416124 -156.53687668 165.76296043 C-156.65166738 117.85676695 -148.46586144 77.81750867 -114.02734375 42.51544189 C-101.10757939 29.6487293 -83.89851024 17.0359361 -66.15234375 12.14044189 C-66.15234375 11.48044189 -66.15234375 10.82044189 -66.15234375 10.14044189 C-62.07170387 9.0055196 -57.98739028 7.88438942 -53.90234375 6.76544189 C-52.7628125 6.44833252 -51.62328125 6.13122314 -50.44921875 5.80450439 C-33.6675906 1.22769672 -17.33565758 -0.01126962 0 0 Z " fill="#FE973A" transform="translate(370.15234375,253.85955810546875)"/>
<path d="M0 0 C9.6739695 7.3447863 14.73898098 15.49409859 16.59375 27.671875 C17.02801606 36.86633568 13.99731233 46.98011235 8.20703125 54.1328125 C7.56121094 54.95458984 7.56121094 54.95458984 6.90234375 55.79296875 C4.35321321 58.92771036 1.66295342 61.67628839 -1.42096233 64.28575039 C-6.16371342 68.39592625 -10.57602607 72.79523784 -14.99507141 77.24830627 C-15.88844355 78.14435182 -16.78181569 79.04039737 -17.70225972 79.96359581 C-19.65093802 81.9181464 -21.59799409 83.8742935 -23.543787 85.83171654 C-26.71098654 89.01782744 -29.88175462 92.20037223 -33.052948 95.38250732 C-37.0614826 99.40539825 -41.06906054 103.42923823 -45.07551052 107.45420527 C-52.94889917 115.36396286 -60.82856496 123.26744049 -68.710495 131.16868591 C-69.95360546 132.41490666 -71.19671223 133.6611311 -72.43981534 134.90735918 C-74.32333145 136.79560076 -76.2068512 138.68383872 -78.09038571 140.57206194 C-85.18068258 147.6800593 -92.27028359 154.78875031 -99.35913086 161.89819336 C-100.00666607 162.54760562 -100.65420128 163.19701788 -101.32135876 163.8661093 C-111.81751062 174.39316031 -122.30625853 184.92756197 -132.79275642 195.46422864 C-143.57433398 206.29694618 -154.3654967 217.12005036 -165.16514081 227.9347567 C-171.81811503 234.59767957 -178.46331271 241.26816922 -185.0986171 247.94868969 C-189.64781195 252.52751583 -194.20616831 257.09708795 -198.77174345 261.65958089 C-201.40232115 264.28894401 -204.02871202 266.92215102 -206.64415932 269.56657219 C-209.48587253 272.43956244 -212.34684107 275.2925988 -215.20991516 278.14430237 C-216.02453462 278.97416816 -216.83915409 279.80403395 -217.67845899 280.65904719 C-227.06701826 289.93517773 -237.0044166 295.06086296 -250.16796875 295.4453125 C-256.17731047 295.34110426 -261.2190517 294.33533085 -266.79296875 292.1328125 C-267.44394531 291.90078125 -268.09492188 291.66875 -268.765625 291.4296875 C-273.34755777 289.51035632 -276.7829034 286.49187872 -280.38064575 283.13563538 C-280.90729391 282.64821399 -281.43394207 282.1607926 -281.97654927 281.65860087 C-287.26200646 276.74205117 -292.40349534 271.68419301 -297.51513672 266.58764648 C-298.52176447 265.58731002 -299.5285705 264.58715294 -300.53553772 263.5871582 C-303.78885778 260.35452917 -307.03716398 257.11688687 -310.28515625 253.87890625 C-311.41427855 252.75384182 -312.54343046 251.62880709 -313.67261124 250.50380135 C-318.97177021 245.22360091 -324.26857729 239.94105524 -329.56245983 234.65556473 C-335.63938425 228.58843932 -341.72453278 222.52971895 -347.81666267 216.47786278 C-352.55353976 211.77121527 -357.28264817 207.0568509 -362.00608742 202.33671814 C-364.81592244 199.52922148 -367.6288931 196.72505593 -370.4501915 193.92907524 C-373.10050656 191.30217314 -375.74097794 188.66574999 -378.37449455 186.0220108 C-379.79071553 184.60506531 -381.21678373 183.19798288 -382.64323425 181.79133606 C-391.85008182 172.50993934 -398.20541898 163.29449016 -398.16796875 149.8828125 C-398.08949321 138.60044442 -395.11914554 131.62172118 -387.21484375 123.39453125 C-379.6574696 116.33691894 -371.41070478 112.21851204 -360.98046875 111.6953125 C-341.18373624 112.4123595 -328.598877 127.17762786 -315.50390625 140.25390625 C-314.67460602 141.07987808 -313.84530579 141.90584991 -312.99087524 142.7568512 C-311.26035897 144.48235121 -309.53115159 146.20916487 -307.80322266 147.93725586 C-305.14505235 150.59320979 -302.47894343 153.24102685 -299.8125 155.88867188 C-298.1258145 157.57242837 -296.43959896 159.25665582 -294.75390625 160.94140625 C-293.95407318 161.7340538 -293.15424011 162.52670135 -292.33016968 163.34336853 C-291.60165802 164.07495682 -290.87314636 164.8065451 -290.12255859 165.56030273 C-289.47765472 166.20378159 -288.83275085 166.84726044 -288.16830444 167.51023865 C-286.79296875 169.1328125 -286.79296875 169.1328125 -286.79296875 171.1328125 C-286.20128906 171.38546875 -285.60960937 171.638125 -285 171.8984375 C-282.53283814 173.27830148 -281.25585046 174.69642357 -279.48046875 176.8828125 C-276.67527124 180.20459884 -273.75128751 183.00791717 -270.41015625 185.77734375 C-266.66323742 188.91787716 -263.46691485 192.49465551 -260.29296875 196.1953125 C-257.68405876 199.21525427 -255.0351547 201.77485908 -251.79296875 204.1328125 C-248.53594358 202.71062935 -246.43297901 200.98749284 -243.97265625 198.4375 C-243.27269531 197.72207031 -242.57273437 197.00664063 -241.8515625 196.26953125 C-240.77068359 195.14998047 -240.77068359 195.14998047 -239.66796875 194.0078125 C-238.23250997 192.52154102 -236.79262882 191.03952372 -235.34765625 189.5625 C-234.71327637 188.90491699 -234.07889648 188.24733398 -233.42529297 187.56982422 C-231.79296875 186.1328125 -231.79296875 186.1328125 -229.79296875 186.1328125 C-229.53257812 185.53339844 -229.2721875 184.93398438 -229.00390625 184.31640625 C-227.71012624 181.98342876 -226.49828111 180.83503469 -224.41796875 179.1953125 C-222.26042561 177.42320315 -220.60557312 175.89705671 -218.85546875 173.6953125 C-217.03463963 171.43307026 -215.30503452 169.77933568 -213.10758209 167.90992165 C-209.136435 164.4707688 -205.39487592 160.86507795 -201.69665527 157.13656616 C-201.02984537 156.46849398 -200.36303546 155.8004218 -199.67601919 155.11210501 C-197.4645579 152.89530913 -195.25671347 150.67494685 -193.04882812 148.45458984 C-191.45497701 146.85554009 -189.86087968 145.25673572 -188.26655579 143.65815735 C-184.8446057 140.22629797 -181.42412665 136.79298153 -178.00471497 133.35859299 C-172.59510229 127.92584579 -167.1805497 122.49804032 -161.76501465 117.07119751 C-154.17155465 109.46127477 -146.57878385 101.85066693 -138.98779297 94.23828125 C-138.50694526 93.75608111 -138.02609754 93.27388096 -137.53067869 92.77706869 C-129.7318429 84.9560332 -121.93685698 77.13116925 -114.14282554 69.30534641 C-106.124947 61.25504546 -98.10119279 53.21063796 -90.07268572 45.17093432 C-84.68987726 39.78003536 -79.31370246 34.38263449 -73.94231415 28.98035789 C-70.59798581 25.62000574 -67.24736228 22.26598648 -63.89491844 18.91373253 C-62.34434197 17.36073769 -60.7963369 15.80517045 -59.25113869 14.24682426 C-57.13742741 12.11588342 -55.01457977 9.99446809 -52.88928223 7.87509155 C-52.28381734 7.26020603 -51.67835246 6.6453205 -51.05454016 6.01180208 C-36.56296169 -8.34566282 -17.50656068 -11.70368672 0 0 Z " fill="#195DEC" transform="translate(734.79296875,352.8671875)"/>
<path d="M0 0 C0.33 0 0.66 0 1 0 C0.67 136.62 0.34 273.24 0 414 C-0.66 413.67 -1.32 413.34 -2 413 C-3.00258515 408.71687018 -3.12523788 404.56810021 -3.12584114 400.18325424 C-3.12729458 399.51917303 -3.12874802 398.85509182 -3.13024551 398.17088693 C-3.13389199 395.94786543 -3.13042535 393.72491308 -3.12698364 391.50189209 C-3.128136 389.89104338 -3.1297243 388.28019494 -3.13171089 386.66934705 C-3.1358886 382.2441868 -3.1338205 377.81904809 -3.13072467 373.39388776 C-3.1284644 368.62074973 -3.13195337 363.84761544 -3.13470459 359.07447815 C-3.13915494 349.72328498 -3.13818895 340.37209984 -3.13529195 331.02090636 C-3.1330345 323.41958927 -3.13272688 315.81827442 -3.13381577 308.21695709 C-3.133969 307.13549102 -3.13412223 306.05402494 -3.13428011 304.93978716 C-3.13459983 302.74282668 -3.13492405 300.5458662 -3.1352527 298.34890571 C-3.13810548 277.73868952 -3.13482391 257.12847776 -3.12945233 236.5182623 C-3.12498701 218.83818175 -3.12575838 201.15810777 -3.13037109 183.47802734 C-3.13572478 162.9482666 -3.13782814 142.41850975 -3.13475883 121.88874841 C-3.13444028 119.69860093 -3.13412591 117.50845345 -3.13381577 115.31830597 C-3.13366149 114.2407159 -3.13350721 113.16312584 -3.13334826 112.05288152 C-3.13248531 104.46375834 -3.13394129 96.87463763 -3.13629532 89.28551483 C-3.13910243 80.03218881 -3.13833589 70.77887127 -3.13301457 61.52554622 C-3.1303895 56.80538984 -3.12935225 52.08524759 -3.13266373 47.36509132 C-3.13565141 43.04097603 -3.13399274 38.71688793 -3.12868617 34.39277509 C-3.1275725 32.83154889 -3.12812979 31.27032038 -3.13056196 29.70909569 C-3.1617633 8.00980036 -3.1617633 8.00980036 0 0 Z " fill="#FD8B2E" transform="translate(217,371)"/>
<path d="M0 0 C-2.61503374 2.61503374 -4.43395833 2.60011194 -8.0625 3.25 C-23.83196529 6.5132023 -37.20458636 12.82311569 -51 21 C-52.34493892 21.7918589 -53.68998807 22.58353061 -55.03515625 23.375 C-57.06799751 24.57274283 -59.09977659 25.77212898 -61.12866211 26.9765625 C-67.38060768 30.67511621 -73.71593073 34.21688343 -80.0625 37.75 C-88.389778 42.38675833 -96.65807429 47.10799065 -104.875 51.9375 C-113.09834302 56.75626116 -121.34902789 61.52311675 -129.66046143 66.18826294 C-131.38637446 67.15875187 -133.10805284 68.13675973 -134.82958984 69.11499023 C-146.32717747 75.53489683 -156.41034694 79.24040615 -169.76953125 76.4140625 C-177.92977129 73.61259426 -185.11222438 67.48278484 -189.6875 60.1875 C-191.06464549 56.84300381 -191.04528847 56.23408044 -190 53 C-189.60167969 53.68707031 -189.20335937 54.37414062 -188.79296875 55.08203125 C-188.26316406 55.98308594 -187.73335937 56.88414062 -187.1875 57.8125 C-186.66542969 58.70582031 -186.14335937 59.59914063 -185.60546875 60.51953125 C-184.13059348 62.98801278 -184.13059348 62.98801278 -182.30078125 64.69921875 C-181.65689453 65.34310547 -181.65689453 65.34310547 -181 66 C-181 66.66 -181 67.32 -181 68 C-180.01 68.37125 -180.01 68.37125 -179 68.75 C-176 70 -176 70 -172.6875 72.125 C-166.32454423 75.25275687 -158.87099247 75.35187397 -152 74 C-146.99455907 72.29236762 -142.4388885 69.72758372 -137.88500977 67.07080078 C-135.24046256 65.5685363 -132.52102693 64.23445224 -129.79443359 62.88867188 C-124.45242732 60.24310687 -119.36155423 57.29634799 -114.4375 53.9375 C-111.06745012 51.64796871 -107.68393093 49.74631722 -104.015625 47.984375 C-97.27171532 44.69083771 -90.83853105 40.75782106 -84.3828125 36.94140625 C-80.60530268 34.77348203 -76.7836809 32.69651745 -72.95703125 30.61694336 C-68.09165921 27.9564943 -63.26437264 25.22950085 -58.4375 22.5 C-57.47392578 21.95730469 -56.51035156 21.41460938 -55.51757812 20.85546875 C-50.92325104 18.25934866 -46.36971271 15.62468102 -41.875 12.859375 C-37.25638003 10.07381708 -32.54111799 7.81395334 -27.5625 5.75 C-26.3264502 5.23469727 -26.3264502 5.23469727 -25.06542969 4.70898438 C-16.78251128 1.35412556 -8.95238954 -0.39788398 0 0 Z " fill="#FC8A2C" transform="translate(408,733)"/>
<path d="M0 0 C0.66 0 1.32 0 2 0 C1.38758152 4.43793668 -0.33117376 8.04125281 -2.4375 11.9375 C-2.79021973 12.59137695 -3.14293945 13.24525391 -3.50634766 13.91894531 C-11.07816268 27.61342416 -20.93399939 38.99938197 -32 50 C-32.53157715 50.54938232 -33.0631543 51.09876465 -33.61083984 51.66479492 C-49.14547147 67.59030356 -77.37924389 87.27330533 -100.375 88.125 C-101.24125 88.08375 -102.1075 88.0425 -103 88 C-103 87.34 -103 86.68 -103 86 C-102.27296875 85.84144531 -101.5459375 85.68289063 -100.796875 85.51953125 C-93.12576133 83.73943949 -86.16329053 81.24769233 -79 78 C-78.31647461 77.69368652 -77.63294922 77.38737305 -76.92871094 77.07177734 C-74.67650972 76.05873307 -72.43112882 75.03187992 -70.1875 74 C-69.12946167 73.5201062 -69.12946167 73.5201062 -68.05004883 73.03051758 C-63.27848807 70.79868575 -59.22513563 68.14648955 -55 65 C-54.21625 64.54625 -53.4325 64.0925 -52.625 63.625 C-49.2641428 61.54446935 -46.25891536 59.09947252 -43.18359375 56.62109375 C-41.18141685 55.13468335 -39.2629159 54.03139704 -37 53 C-37 52.34 -37 51.68 -37 51 C-35.56640625 49.625 -35.56640625 49.625 -33.5625 48 C-19.40071302 35.85067749 -5.94256845 17.82770535 0 0 Z " fill="#FC8C2F" transform="translate(840,640)"/>
<path d="M0 0 C0.66 0 1.32 0 2 0 C3.36522388 1.38467026 3.36522388 1.38467026 4.98262024 3.3505249 C9.48084091 8.63469941 14.36450799 13.49727562 19.27807617 18.39160156 C20.29745121 19.41069391 21.31660489 20.43000773 22.33555603 21.44952393 C25.08102275 24.19527558 27.82954515 26.93794936 30.57865691 29.68005085 C33.46402002 32.55912305 36.34651357 35.44106543 39.22932434 38.32269287 C44.6834618 43.77373136 50.14014056 49.22221843 55.59775573 54.66977477 C61.79852921 60.85936637 67.99646143 67.05179969 74.19415319 73.2444768 C84.78727039 83.82892464 95.38249052 94.41126352 105.98010254 104.99121094 C107.28578438 106.29472504 107.28578438 106.29472504 108.61784363 107.62457275 C109.37199649 108.3774268 110.12614935 109.13028084 110.90315533 109.90594864 C112.93632631 111.93641114 114.96843038 113.96793538 117 116 C112.9153386 114.64069151 110.53135013 112.88818564 107.53125 109.82421875 C106.71269531 108.99599609 105.89414062 108.16777344 105.05078125 107.31445312 C104.20902344 106.44755859 103.36726563 105.58066406 102.5 104.6875 C101.65824219 103.83220703 100.81648438 102.97691406 99.94921875 102.09570312 C98.32581377 100.44545444 96.7052531 98.79240168 95.08789062 97.13623047 C92.74413707 94.73821321 90.37704451 92.36499867 88 90 C86.9476621 88.9481713 85.8955988 87.89606782 84.84375 86.84375 C84.29589844 86.29589844 83.74804688 85.74804688 83.18359375 85.18359375 C81.5078125 83.5078125 79.83203125 81.83203125 78.15625 80.15625 C77.62338379 79.62410889 77.09051758 79.09196777 76.54150391 78.54370117 C75.10318485 77.10333193 73.67238715 75.6554629 72.2421875 74.20703125 C70.06197847 71.96881677 70.06197847 71.96881677 67.625 70.1875 C64.69116706 67.74263921 62.3702027 65.04871754 59.89453125 62.15234375 C56.76643714 58.59857085 53.37813966 55.31386216 50 52 C45 47 45 47 42.6875 44.625 C40.53302594 42.52062998 38.35184656 40.5748617 36.0625 38.625 C32.76405228 35.78172559 29.95008055 32.77579868 27.2265625 29.3828125 C26.02824461 27.85896891 26.02824461 27.85896891 24 27 C24 26.34 24 25.68 24 25 C23.34 25 22.68 25 22 25 C20.375 23.625 20.375 23.625 19 22 C19 21.34 19 20.68 19 20 C18.34 20 17.68 20 17 20 C15.59765625 18.5390625 15.59765625 18.5390625 14.0625 16.625 C12.08013383 14.16098476 10.69300345 12.79533563 8 11 C8 10.34 8 9.68 8 9 C7.34 9 6.68 9 6 9 C4.65080468 7.34614767 3.31866272 5.678298 2 4 C1.01 3.34 0.02 2.68 -1 2 C-0.67 1.34 -0.34 0.68 0 0 Z " fill="#F6AA27" transform="translate(343,525)"/>
<path d="M0 0 C3.47609534 1.49346271 5.73290945 3.47974419 8.40136719 6.14257812 C9.2619574 6.99686401 10.12254761 7.8511499 11.00921631 8.73132324 C11.92914368 9.65529907 12.84907104 10.5792749 13.796875 11.53125 C14.75493637 12.48796371 15.71329443 13.4443804 16.67193604 14.4005127 C18.67567264 16.40130563 20.67575889 18.40565949 22.67333984 20.41259766 C25.2379383 22.98862107 27.81145211 25.55552099 30.38773727 28.11985016 C32.36612446 30.0910246 34.339741 32.06691997 36.3119278 34.04429626 C37.7207719 35.45512771 39.13365318 36.86192389 40.54656982 38.26867676 C41.39455139 39.12296265 42.24253296 39.97724854 43.11621094 40.85742188 C43.8680365 41.61083862 44.61986206 42.36425537 45.39447021 43.14050293 C47 45 47 45 47 47 C47.59296875 47.25523437 48.1859375 47.51046875 48.796875 47.7734375 C51.21224538 49.11816498 52.51211706 50.49214367 54.25 52.625 C54.77078125 53.25664063 55.2915625 53.88828125 55.828125 54.5390625 C56.40820312 55.26222656 56.40820312 55.26222656 57 56 C54 56 54 56 52.39453125 54.7578125 C51.87246094 54.21898437 51.35039062 53.68015625 50.8125 53.125 C50.28269531 52.59132813 49.75289063 52.05765625 49.20703125 51.5078125 C48 50 48 50 48 48 C47.44820068 47.77417236 46.89640137 47.54834473 46.32788086 47.31567383 C43.29629916 45.60228171 41.20225141 43.42571825 38.75390625 40.94921875 C38.26091537 40.45339798 37.7679245 39.95757721 37.25999451 39.44673157 C35.68938604 37.86497269 34.12586714 36.27641315 32.5625 34.6875 C31.51543948 33.63039807 30.46791787 32.57375264 29.41992188 31.51757812 C27.48221204 29.56359322 25.54781937 27.60653087 23.61547852 25.6472168 C19.77683645 21.76199362 15.9120464 17.90527926 12.01171875 14.08203125 C10.57021262 12.65895533 9.12880852 11.23577606 7.6875 9.8125 C6.57665039 8.72678711 6.57665039 8.72678711 5.44335938 7.61914062 C4.74404297 6.92626953 4.04472656 6.23339844 3.32421875 5.51953125 C2.68572998 4.89151611 2.04724121 4.26350098 1.3894043 3.61645508 C0 2 0 2 0 0 Z " fill="#2C56DB" transform="translate(401,477)"/>
<path d="M0 0 C-0.33 0.66 -0.66 1.32 -1 2 C-3.55641893 2.63455054 -6.0320246 3.13633449 -8.625 3.5625 C-9.38103516 3.69108398 -10.13707031 3.81966797 -10.91601562 3.95214844 C-18.21931557 5.13687891 -25.59430543 5.95839497 -33 6 C-33.495 5.505 -33.495 5.505 -34 5 C-36.17731389 4.87598086 -38.35863454 4.8219849 -40.53930664 4.79467773 C-41.22220261 4.78477814 -41.90509857 4.77487854 -42.60868835 4.76467896 C-44.87580853 4.73298065 -47.14294969 4.70827387 -49.41015625 4.68359375 C-50.97815001 4.6630314 -52.54613813 4.64203512 -54.11412048 4.62062073 C-58.24870248 4.56532576 -62.38333511 4.51594938 -66.51800537 4.46777344 C-70.73405483 4.41761247 -74.95003043 4.36189826 -79.16601562 4.30664062 C-87.44394803 4.1989683 -95.72194208 4.09754365 -104 4 C-104 3.67 -104 3.34 -104 3 C-103.02519684 2.99191315 -102.05039368 2.98382629 -101.04605103 2.97549438 C-91.78038024 2.89741749 -82.5148453 2.80953341 -73.24935341 2.71247292 C-68.48787877 2.66289788 -63.72642228 2.61657054 -58.96484375 2.578125 C-54.35463514 2.54077446 -49.74459465 2.49429314 -45.13453293 2.44193649 C-43.39105608 2.42365274 -41.64754358 2.40845317 -39.90401077 2.39665604 C-29.40955291 2.3232257 -19.15555654 1.7448137 -8.74105835 0.42294312 C-5.77232937 0.08731523 -2.97903982 -0.09095644 0 0 Z " fill="#FE8E31" transform="translate(736,728)"/>
<path d="M0 0 C3 0 3 0 4.5078125 1.328125 C6.36350157 3.53343664 8.19474775 5.75307438 10 8 C11.04220703 9.25490234 11.04220703 9.25490234 12.10546875 10.53515625 C19.86612158 20.30121672 28.01800814 32.75062028 31 45 C30.625 47.375 30.625 47.375 30 49 C29.63648438 48.12859375 29.27296875 47.2571875 28.8984375 46.359375 C21.91409884 29.81186493 14.0156088 16.11416533 1.65234375 2.86328125 C0 1 0 1 0 0 Z " fill="#FC8B2F" transform="translate(817,287)"/>
<path d="M0 0 C0.598125 0.20625 1.19625 0.4125 1.8125 0.625 C0.760625 1.27855469 0.760625 1.27855469 -0.3125 1.9453125 C-12.9946416 9.90611334 -23.7136011 18.93289487 -34.1875 29.625 C-34.5175 28.635 -34.8475 27.645 -35.1875 26.625 C-26.0800738 16.80481871 -16.34393965 9.01280655 -5.1875 1.625 C-2.1875 -0.375 -2.1875 -0.375 0 0 Z " fill="#FD8C30" transform="translate(286.1875,275.375)"/>
<path d="M0 0 C0.66 0.33 1.32 0.66 2 1 C-3.94 6.94 -9.88 12.88 -16 19 C-22.40176577 15.79911712 -26.46829218 10.40378905 -31 5 C-26.62960457 6.8396542 -24.18030415 9.91858117 -21.09765625 13.41796875 C-19.12999028 15.19705802 -19.12999028 15.19705802 -16.703125 15.1796875 C-12.51035591 13.34989521 -9.80470095 10.22163653 -6.6875 6.9375 C-6.04232422 6.27427734 -5.39714844 5.61105469 -4.73242188 4.92773438 C-3.14552982 3.29382329 -1.56873672 1.65131853 0 0 Z " fill="#FBAC24" transform="translate(501,539)"/>
<path d="M0 0 C0.66 0 1.32 0 2 0 C0.56979987 3.87286867 -1.25186375 7.27548481 -3.375 10.8125 C-6.12822623 15.46252092 -8.65915509 20.13104259 -11 25 C-11.73046875 23.4609375 -11.73046875 23.4609375 -12 21 C-10.8685634 18.40968262 -9.70070558 16.06939665 -8.3125 13.625 C-7.95994141 12.97789062 -7.60738281 12.33078125 -7.24414062 11.6640625 C-5.02382789 7.63746244 -2.72535981 3.70648934 0 0 Z " fill="#FD8A2D" transform="translate(238,318)"/>
<path d="M0 0 C2 1 2 1 2.88671875 3.6328125 C5.00650423 12.87714526 5.09196211 20.60649459 4 30 C3.67 30 3.34 30 3 30 C2.94465088 29.34402832 2.88930176 28.68805664 2.83227539 28.01220703 C2.57990601 25.04942727 2.32128185 22.08722626 2.0625 19.125 C1.97548828 18.09246094 1.88847656 17.05992187 1.79882812 15.99609375 C1.71181641 15.00996094 1.62480469 14.02382813 1.53515625 13.0078125 C1.456604 12.09660645 1.37805176 11.18540039 1.29711914 10.24658203 C1.12004581 7.968356 1.12004581 7.968356 0 6 C-0.039992 4.00039988 -0.04346799 1.99952758 0 0 Z " fill="#FD8E32" transform="translate(848,338)"/>
<path d="M0 0 C0 0.66 0 1.32 0 2 C-1.79296875 3.515625 -1.79296875 3.515625 -4.1875 5.25 C-8.06739415 8.17502924 -10.92918294 11.22053285 -14 15 C-16.59970996 17.41401639 -19.28207401 19.72044917 -22 22 C-22 18.01049816 -20.725186 17.33883921 -17.94921875 14.55078125 C-17.10552734 13.70322266 -16.26183594 12.85566406 -15.39257812 11.98242188 C-14.05356445 10.66081055 -14.05356445 10.66081055 -12.6875 9.3125 C-11.80642578 8.41982422 -10.92535156 7.52714844 -10.01757812 6.60742188 C-9.17001953 5.76373047 -8.32246094 4.92003906 -7.44921875 4.05078125 C-6.27879028 2.88542847 -6.27879028 2.88542847 -5.0847168 1.6965332 C-3 0 -3 0 0 0 Z " fill="#F7A72C" transform="translate(677,475)"/>
<path d="M0 0 C5.0447215 0.47953626 8.18370796 2.9459977 12.125 5.875 C12.74503906 6.32230469 13.36507812 6.76960938 14.00390625 7.23046875 C16.88772874 9.33286837 19.51524398 11.42760155 22 14 C21.67 14.66 21.34 15.32 21 16 C19.73542969 15.04287109 19.73542969 15.04287109 18.4453125 14.06640625 C17.33860532 13.23168643 16.23183099 12.39705563 15.125 11.5625 C14.56941406 11.14162109 14.01382813 10.72074219 13.44140625 10.28710938 C10.34907114 7.94254056 10.34907114 7.94254056 7 6 C7 5.34 7 4.68 7 4 C6.030625 3.71125 5.06125 3.4225 4.0625 3.125 C1 2 1 2 0 0 Z " fill="#FC8E32" transform="translate(794,270)"/>
<path d="M0 0 C0.6953125 1.76953125 0.6953125 1.76953125 1 4 C-1.48964564 7.73446847 -4.66610683 10.57428942 -8.9375 11.9375 C-9.9584375 11.9684375 -9.9584375 11.9684375 -11 12 C-10.0919838 10.86800647 -9.17316174 9.74467637 -8.25 8.625 C-7.73953125 7.99851562 -7.2290625 7.37203125 -6.703125 6.7265625 C-5 5 -5 5 -2.859375 3.9609375 C-0.64209631 3.08895682 -0.64209631 3.08895682 0 0 Z " fill="#EE9B3A" transform="translate(738,411)"/>
<path d="M0 0 C1.03253906 0.00676758 1.03253906 0.00676758 2.0859375 0.01367188 C3.76566335 0.02533664 5.44534375 0.04326729 7.125 0.0625 C7.125 0.3925 7.125 0.7225 7.125 1.0625 C-0.135 2.0525 -7.395 3.0425 -14.875 4.0625 C-14.545 3.0725 -14.215 2.0825 -13.875 1.0625 C-9.21962644 0.14157719 -4.72814567 -0.05955997 0 0 Z " fill="#FE8F31" transform="translate(343.875,255.9375)"/>
<path d="M0 0 C0 3.26229641 -0.21770324 4.32655486 -2 7 C-3.99330842 8.34331654 -5.99384866 9.67594012 -8 11 C-10.32277416 13.6091387 -10.32277416 13.6091387 -12 16 C-12.99 15.67 -13.98 15.34 -15 15 C-10.05 10.05 -5.1 5.1 0 0 Z " fill="#EFA437" transform="translate(694,455)"/>
<path d="M0 0 C0.93045933 2.55144824 1.08564091 3.74006478 0.22265625 6.359375 C-0.16019531 7.14828125 -0.54304687 7.9371875 -0.9375 8.75 C-1.50791016 9.94882812 -1.50791016 9.94882812 -2.08984375 11.171875 C-2.39019531 11.77515625 -2.69054687 12.3784375 -3 13 C-3.93045933 10.44855176 -4.08564091 9.25993522 -3.22265625 6.640625 C-2.83980469 5.85171875 -2.45695313 5.0628125 -2.0625 4.25 C-1.68222656 3.45078125 -1.30195312 2.6515625 -0.91015625 1.828125 C-0.60980469 1.22484375 -0.30945313 0.6215625 0 0 Z " fill="#FD8D2E" transform="translate(846,626)"/>
<path d="M0 0 C0.33 1.32 0.66 2.64 1 4 C-0.6875 6.3125 -0.6875 6.3125 -3 8 C-4.32 7.67 -5.64 7.34 -7 7 C-4.69 4.69 -2.38 2.38 0 0 Z " fill="#EB9D3E" transform="translate(722,427)"/>
<path d="M0 0 C4.77375186 1.87540252 7.2027298 5.20614205 9.25 9.8125 C9.4975 10.534375 9.745 11.25625 10 12 C6.0747975 8.29909479 3.05419844 4.45040344 0 0 Z " fill="#F6A928" transform="translate(738,355)"/>
<path d="M0 0 C0.66 0 1.32 0 2 0 C0.64978174 4.41889613 -1.26115668 6.34345343 -5 9 C-4.42676569 5.13066838 -2.61046448 2.84777943 0 0 Z " fill="#FD8B2D" transform="translate(246,308)"/>
<path d="M0 0 C3.21043882 1.38188453 5.04936365 2.92421903 7.25 5.625 C8.03117187 6.57246094 8.03117187 6.57246094 8.828125 7.5390625 C9.40820312 8.26222656 9.40820312 8.26222656 10 9 C7 9 7 9 5.17578125 7.28515625 C4.56089844 6.55167969 3.94601562 5.81820312 3.3125 5.0625 C2.68988281 4.33160156 2.06726563 3.60070312 1.42578125 2.84765625 C0 1 0 1 0 0 Z " fill="#F1A92D" transform="translate(470,544)"/>
<path d="M0 0 C0 3.16880694 -0.2058242 4.43689172 -2 7 C-4.625 7.75 -4.625 7.75 -7 8 C-6.02133662 6.85373678 -5.04205413 5.70800212 -4.0625 4.5625 C-3.51722656 3.92441406 -2.97195313 3.28632813 -2.41015625 2.62890625 C-1.63204305 1.73008851 -0.84063472 0.84063472 0 0 Z " fill="#D99947" transform="translate(734,415)"/>
<path d="M0 0 C2 4 2 4 1.6875 6.125 C1 8 1 8 0 10 C-0.66 10 -1.32 10 -2 10 C-1.34 6.7 -0.68 3.4 0 0 Z " fill="#DF9B43" transform="translate(750,388)"/>
<path d="M0 0 C0.33 0.99 0.66 1.98 1 3 C-1.31 4.65 -3.62 6.3 -6 8 C-4.55746343 4.63408134 -2.66735273 2.48952921 0 0 Z " fill="#114EF0" transform="translate(518,525)"/>
<path d="M0 0 C0.33 0 0.66 0 1 0 C1 1.98 1 3.96 1 6 C0.67 6 0.34 6 0 6 C0 4.02 0 2.04 0 0 Z " fill="#F59742" transform="translate(212,465)"/>
<path d="M0 0 C0.33 0 0.66 0 1 0 C1 1.65 1 3.3 1 5 C0.67 5 0.34 5 0 5 C0 3.35 0 1.7 0 0 Z " fill="#F39441" transform="translate(212,738)"/>
<path d="M0 0 C0.33 0 0.66 0 1 0 C1 1.65 1 3.3 1 5 C0.67 5 0.34 5 0 5 C0 3.35 0 1.7 0 0 Z " fill="#F59541" transform="translate(212,707)"/>
<path d="M0 0 C0.33 0 0.66 0 1 0 C1 1.65 1 3.3 1 5 C0.67 5 0.34 5 0 5 C0 3.35 0 1.7 0 0 Z " fill="#F69741" transform="translate(212,640)"/>
<path d="M0 0 C0.33 0 0.66 0 1 0 C1 1.65 1 3.3 1 5 C0.67 5 0.34 5 0 5 C0 3.35 0 1.7 0 0 Z " fill="#F69741" transform="translate(212,571)"/>
<path d="M0 0 C1 4 1 4 1 4 Z " fill="#F39440" transform="translate(212,747)"/>
<path d="M0 0 C1 4 1 4 1 4 Z " fill="#F59641" transform="translate(212,652)"/>
<path d="M0 0 C1 4 1 4 1 4 Z " fill="#F69841" transform="translate(855,538)"/>
<path d="M0 0 C1 4 1 4 1 4 Z " fill="#F79A41" transform="translate(855,530)"/>
<path d="M0 0 C1 4 1 4 1 4 Z " fill="#F69842" transform="translate(212,515)"/>
<path d="M0 0 C1 4 1 4 1 4 Z " fill="#F79841" transform="translate(855,434)"/>
<path d="M0 0 C1 4 1 4 1 4 Z " fill="#F59742" transform="translate(212,433)"/>
<path d="M0 0 C1 4 1 4 1 4 Z " fill="#F49742" transform="translate(212,428)"/>
<path d="" fill="#F2923F" transform="translate(0,0)"/>
<path d="" fill="#F19340" transform="translate(0,0)"/>
<path d="M0 0 C3 1 3 1 3 1 Z " fill="#F69942" transform="translate(411,735)"/>
<path d="" fill="#F59441" transform="translate(0,0)"/>
<path d="" fill="#F69742" transform="translate(0,0)"/>
<path d="" fill="#F59743" transform="translate(0,0)"/>
<path d="" fill="#F59642" transform="translate(0,0)"/>
<path d="" fill="#F59542" transform="translate(0,0)"/>
<path d="" fill="#F59742" transform="translate(0,0)"/>
<path d="" fill="#F79641" transform="translate(0,0)"/>
<path d="" fill="#F59741" transform="translate(0,0)"/>
<path d="" fill="#F69741" transform="translate(0,0)"/>
<path d="" fill="#F69742" transform="translate(0,0)"/>
<path d="" fill="#F69940" transform="translate(0,0)"/>
<path d="" fill="#F79940" transform="translate(0,0)"/>
<path d="" fill="#F59742" transform="translate(0,0)"/>
<path d="" fill="#F59741" transform="translate(0,0)"/>
<path d="" fill="#F59742" transform="translate(0,0)"/>
<path d="" fill="#F49743" transform="translate(0,0)"/>
<path d="" fill="#F49642" transform="translate(0,0)"/>
<path d="M0 0 C3 1 3 1 3 1 Z " fill="#F19443" transform="translate(765,256)"/>
<path d="M0 0 C2 1 2 1 2 1 Z " fill="#F89741" transform="translate(406,735)"/>
<path d="" fill="#F39441" transform="translate(0,0)"/>
<path d="M0 0 C2 1 2 1 2 1 Z " fill="#F69643" transform="translate(721,733)"/>
<path d="M0 0 C2 1 2 1 2 1 Z " fill="#F29642" transform="translate(753,725)"/>
<path d="" fill="#F49642" transform="translate(0,0)"/>
<path d="" fill="#F69843" transform="translate(0,0)"/>
<path d="" fill="#F69640" transform="translate(0,0)"/>
<path d="" fill="#F89741" transform="translate(0,0)"/>
<path d="" fill="#F59742" transform="translate(0,0)"/>
<path d="" fill="#F89941" transform="translate(0,0)"/>
<path d="" fill="#F59742" transform="translate(0,0)"/>
<path d="" fill="#F79742" transform="translate(0,0)"/>
<path d="" fill="#F49743" transform="translate(0,0)"/>
<path d="" fill="#F59942" transform="translate(0,0)"/>
<path d="" fill="#F69840" transform="translate(0,0)"/>
<path d="" fill="#F6993F" transform="translate(0,0)"/>
<path d="" fill="#F79B42" transform="translate(0,0)"/>
<path d="" fill="#F59642" transform="translate(0,0)"/>
<path d="" fill="#F59642" transform="translate(0,0)"/>
<path d="" fill="#F59842" transform="translate(0,0)"/>
<path d="" fill="#F69942" transform="translate(0,0)"/>
<path d="" fill="#F49741" transform="translate(0,0)"/>
<path d="" fill="#F49642" transform="translate(0,0)"/>
<path d="" fill="#F69843" transform="translate(0,0)"/>
<path d="" fill="#F59844" transform="translate(0,0)"/>
<path d="" fill="#F69841" transform="translate(0,0)"/>
<path d="M0 0 C2 1 2 1 2 1 Z " fill="#F19944" transform="translate(328,256)"/>
<path d="" fill="#2C1807" transform="translate(0,0)"/>
<path d="" fill="#F4943F" transform="translate(0,0)"/>
<path d="" fill="#EF933D" transform="translate(0,0)"/>
<path d="" fill="#F69740" transform="translate(0,0)"/>
<path d="" fill="#ED9141" transform="translate(0,0)"/>
<path d="" fill="#F49740" transform="translate(0,0)"/>
<path d="" fill="#EB903D" transform="translate(0,0)"/>
<path d="" fill="#F79641" transform="translate(0,0)"/>
<path d="" fill="#F49641" transform="translate(0,0)"/>
<path d="" fill="#F0913F" transform="translate(0,0)"/>
<path d="" fill="#F6983F" transform="translate(0,0)"/>
<path d="" fill="#F59741" transform="translate(0,0)"/>
<path d="" fill="#F89A44" transform="translate(0,0)"/>
<path d="" fill="#F39642" transform="translate(0,0)"/>
<path d="" fill="#F59541" transform="translate(0,0)"/>
<path d="" fill="#F39541" transform="translate(0,0)"/>
<path d="" fill="#F9983F" transform="translate(0,0)"/>
<path d="" fill="#F39542" transform="translate(0,0)"/>
<path d="" fill="#F3943E" transform="translate(0,0)"/>
<path d="" fill="#F4963D" transform="translate(0,0)"/>
<path d="" fill="#F49642" transform="translate(0,0)"/>
<path d="" fill="#F59742" transform="translate(0,0)"/>
<path d="" fill="#F5913C" transform="translate(0,0)"/>
<path d="" fill="#F59642" transform="translate(0,0)"/>
<path d="" fill="#F69842" transform="translate(0,0)"/>
<path d="" fill="#F89742" transform="translate(0,0)"/>
<path d="" fill="#F69842" transform="translate(0,0)"/>
<path d="" fill="#F79A42" transform="translate(0,0)"/>
<path d="" fill="#F6973F" transform="translate(0,0)"/>
<path d="" fill="#F79743" transform="translate(0,0)"/>
<path d="" fill="#F49743" transform="translate(0,0)"/>
<path d="" fill="#F69743" transform="translate(0,0)"/>
<path d="" fill="#F59842" transform="translate(0,0)"/>
<path d="" fill="#F59640" transform="translate(0,0)"/>
<path d="" fill="#F59942" transform="translate(0,0)"/>
<path d="" fill="#F59840" transform="translate(0,0)"/>
<path d="" fill="#F69942" transform="translate(0,0)"/>
<path d="" fill="#F69843" transform="translate(0,0)"/>
<path d="" fill="#F69743" transform="translate(0,0)"/>
<path d="" fill="#F99842" transform="translate(0,0)"/>
<path d="" fill="#F79842" transform="translate(0,0)"/>
<path d="" fill="#F69842" transform="translate(0,0)"/>
<path d="" fill="#F89942" transform="translate(0,0)"/>
<path d="" fill="#F69943" transform="translate(0,0)"/>
<path d="" fill="#F79843" transform="translate(0,0)"/>
<path d="" fill="#F69841" transform="translate(0,0)"/>
<path d="" fill="#F79B42" transform="translate(0,0)"/>
<path d="" fill="#F69741" transform="translate(0,0)"/>
<path d="" fill="#F69941" transform="translate(0,0)"/>
<path d="" fill="#F59742" transform="translate(0,0)"/>
<path d="" fill="#F99941" transform="translate(0,0)"/>
<path d="" fill="#F89A43" transform="translate(0,0)"/>
<path d="" fill="#F79943" transform="translate(0,0)"/>
<path d="" fill="#F79943" transform="translate(0,0)"/>
<path d="" fill="#F59842" transform="translate(0,0)"/>
<path d="" fill="#F99842" transform="translate(0,0)"/>
<path d="" fill="#F89A42" transform="translate(0,0)"/>
<path d="" fill="#F79741" transform="translate(0,0)"/>
<path d="" fill="#F89B42" transform="translate(0,0)"/>
<path d="" fill="#F99940" transform="translate(0,0)"/>
<path d="" fill="#F79B43" transform="translate(0,0)"/>
<path d="" fill="#F99941" transform="translate(0,0)"/>
<path d="" fill="#F99943" transform="translate(0,0)"/>
<path d="" fill="#F49743" transform="translate(0,0)"/>
<path d="" fill="#F89C43" transform="translate(0,0)"/>
<path d="" fill="#F69941" transform="translate(0,0)"/>
<path d="" fill="#F59842" transform="translate(0,0)"/>
<path d="" fill="#F59744" transform="translate(0,0)"/>
<path d="" fill="#F69842" transform="translate(0,0)"/>
<path d="" fill="#F69940" transform="translate(0,0)"/>
<path d="" fill="#F99942" transform="translate(0,0)"/>
<path d="" fill="#F49743" transform="translate(0,0)"/>
<path d="" fill="#F39744" transform="translate(0,0)"/>
<path d="" fill="#F49942" transform="translate(0,0)"/>
<path d="" fill="#F59743" transform="translate(0,0)"/>
<path d="" fill="#F69942" transform="translate(0,0)"/>
<path d="" fill="#F59743" transform="translate(0,0)"/>
<path d="" fill="#F69843" transform="translate(0,0)"/>
<path d="" fill="#F59A42" transform="translate(0,0)"/>
<path d="" fill="#F79943" transform="translate(0,0)"/>
<path d="" fill="#F59846" transform="translate(0,0)"/>
<path d="" fill="#F39A43" transform="translate(0,0)"/>
<path d="" fill="#F29542" transform="translate(0,0)"/>
<path d="" fill="#F09742" transform="translate(0,0)"/>
<path d="" fill="#F39B45" transform="translate(0,0)"/>
<path d="" fill="#F29742" transform="translate(0,0)"/>
<path d="" fill="#F29841" transform="translate(0,0)"/>
<path d="" fill="#F29946" transform="translate(0,0)"/>
<path d="" fill="#F39542" transform="translate(0,0)"/>
<path d="" fill="#F19743" transform="translate(0,0)"/>
<path d="" fill="#F29745" transform="translate(0,0)"/>
<path d="" fill="#F49944" transform="translate(0,0)"/>
<path d="" fill="#F59945" transform="translate(0,0)"/>
<path d="" fill="#F59845" transform="translate(0,0)"/>
<path d="" fill="#F69943" transform="translate(0,0)"/>
<path d="" fill="#F79B46" transform="translate(0,0)"/>
<path d="" fill="#F69A45" transform="translate(0,0)"/>
<path d="" fill="#F59A45" transform="translate(0,0)"/>
<path d="" fill="#F69A46" transform="translate(0,0)"/>
<path d="" fill="#F69A47" transform="translate(0,0)"/>
<path d="" fill="#F59B45" transform="translate(0,0)"/>
<path d="" fill="#F69945" transform="translate(0,0)"/>
<path d="" fill="#F69A45" transform="translate(0,0)"/>
<path d="" fill="#F69944" transform="translate(0,0)"/>
<path d="" fill="#F69843" transform="translate(0,0)"/>
<path d="" fill="#F69944" transform="translate(0,0)"/>
<path d="" fill="#F59841" transform="translate(0,0)"/>
<path d="" fill="#341E0B" transform="translate(0,0)"/>
</svg>
