<?xml version="1.0" encoding="UTF-8"?>
<svg version="1.1" xmlns="http://www.w3.org/2000/svg" width="128" height="128">
<path d="M0 0 C1.08139755 -0.00953201 2.1627951 -0.01906403 3.27696228 -0.02888489 C4.43539139 -0.02797348 5.5938205 -0.02706207 6.78735352 -0.02612305 C7.98683121 -0.03040817 9.1863089 -0.0346933 10.4221344 -0.03910828 C12.95638397 -0.04484604 15.49065 -0.04535592 18.02490234 -0.04101562 C21.89847958 -0.0378563 25.77129257 -0.06132087 29.64477539 -0.08666992 C32.10896714 -0.08894304 34.57316093 -0.08964635 37.03735352 -0.08862305 C38.19375839 -0.09783279 39.35016327 -0.10704254 40.54161072 -0.11653137 C47.58008756 -0.07610796 52.47390078 0.35326753 57.72875977 5.4621582 C61.69728796 11.84014995 61.78101373 18.73428275 61.66625977 26.0246582 C61.65691406 26.90210693 61.64756836 27.77955566 61.63793945 28.68359375 C61.60155844 31.21463966 61.54492486 33.74423402 61.47875977 36.2746582 C61.43428711 38.11737305 61.43428711 38.11737305 61.38891602 39.99731445 C60.99833335 47.53270204 59.67880531 52.31461608 53.97875977 57.5871582 C50.36527037 60.02626354 47.73828434 61.52217724 43.32788086 61.5300293 C42.51958832 61.53698822 41.71129578 61.54394714 40.87850952 61.55111694 C40.01182648 61.55011993 39.14514343 61.54912292 38.25219727 61.5480957 C36.39672264 61.56839911 34.54125394 61.58925015 32.68579102 61.6105957 C29.77639774 61.63309984 26.8672397 61.64963093 23.95776367 61.65551758 C9.16983129 61.37020754 9.16983129 61.37020754 -4.52124023 66.2746582 C-5.42358398 66.77610352 -6.32592773 67.27754883 -7.25561523 67.79418945 C-8.25334961 68.43420898 -8.25334961 68.43420898 -9.27124023 69.0871582 C-12.35492988 70.86957456 -13.32659976 71.27813393 -17.02124023 71.2121582 C-19.52124023 70.2746582 -19.52124023 70.2746582 -20.52124023 68.2746582 C-20.62695899 66.58081494 -20.67000308 64.88288513 -20.68237305 63.18579102 C-20.69198059 62.12418762 -20.70158813 61.06258423 -20.71148682 59.96881104 C-20.71573669 58.81677185 -20.71998657 57.66473267 -20.72436523 56.4777832 C-20.73006531 55.29625671 -20.73576538 54.11473022 -20.74163818 52.8973999 C-20.75109918 50.39230243 -20.75762651 47.88719246 -20.76147461 45.38208008 C-20.77116498 41.55438388 -20.80217265 37.72722794 -20.83374023 33.8996582 C-20.84027164 31.46736973 -20.84552157 29.03507741 -20.84936523 26.6027832 C-20.86171204 25.45884094 -20.87405884 24.31489868 -20.88677979 23.1362915 C-20.8681636 16.47282092 -20.52269518 11.60328596 -15.87280273 6.4465332 C-15.30303711 5.97731445 -14.73327148 5.5080957 -14.14624023 5.0246582 C-13.29932617 4.30536133 -13.29932617 4.30536133 -12.43530273 3.5715332 C-8.41998225 0.85094871 -4.80769929 0.02336922 0 0 Z " fill="#FD963A" transform="translate(46.521240234375,30.725341796875)"/>
<path d="M0 0 C2.27514648 0.94482422 2.27514648 0.94482422 4.27514648 2.94482422 C4.32667714 6.66292736 2.88506532 8.6268172 0.48706055 11.26635742 C-0.73388793 12.52039123 -1.96678687 13.7628627 -3.20922852 14.99560547 C-3.86183655 15.65441208 -4.51444458 16.31321869 -5.18682861 16.99198914 C-6.56721205 18.37946619 -7.95274431 19.76183714 -9.34301758 21.1394043 C-11.46912925 23.25163732 -13.5701442 25.38676538 -15.67016602 27.52490234 C-17.01506836 28.87075575 -18.36137661 30.21520601 -19.70922852 31.55810547 C-20.65013336 32.51889763 -20.65013336 32.51889763 -21.61004639 33.49909973 C-25.9790223 37.77635826 -25.9790223 37.77635826 -29.41186523 38.55175781 C-34.02110388 37.34228269 -36.85340761 33.57008296 -40.09985352 30.25732422 C-41.22327148 29.17547852 -41.22327148 29.17547852 -42.36938477 28.07177734 C-43.07192383 27.36601563 -43.77446289 26.66025391 -44.49829102 25.93310547 C-45.1420166 25.28897705 -45.78574219 24.64484863 -46.44897461 23.98120117 C-47.72485352 21.94482422 -47.72485352 21.94482422 -47.55151367 19.32055664 C-46.72485352 16.94482422 -46.72485352 16.94482422 -44.72485352 14.94482422 C-41.31947251 15.06989664 -39.94799863 15.74237553 -37.40844727 18.04638672 C-35.90731331 19.73287808 -34.40731828 21.42038385 -32.90844727 23.10888672 C-30.97109321 25.15034414 -30.97109321 25.15034414 -28.92993164 24.89599609 C-25.69448484 23.50036935 -23.6239598 21.09192863 -21.26000977 18.56201172 C-20.20248124 17.46655964 -19.14452547 16.37151988 -18.08618164 15.27685547 C-16.43016523 13.54624816 -14.77929284 11.81127368 -13.13623047 10.06835938 C-11.54476991 8.38641285 -9.93525872 6.72351933 -8.32250977 5.06201172 C-7.59258568 4.27151932 -7.59258568 4.27151932 -6.84791565 3.46505737 C-3.38926528 -0.06862951 -3.38926528 -0.06862951 0 0 Z " fill="#1F5FE7" transform="translate(89.724853515625,43.05517578125)"/>
</svg>
